<svg width="24" height="24" viewBox="0 0 24 24" fill="none" xmlns="http://www.w3.org/2000/svg">
  <path d="M17.0938 12.6436C17.0631 9.67857 19.5143 8.25 19.6071 8.18571C18.2411 6.21429 16.1518 5.95714 15.4018 5.92857C13.6339 5.74286 11.9196 6.97857 11.0179 6.97857C10.0982 6.97857 8.69643 5.95714 7.20536 5.98571C5.275 6.01429 3.48214 7.15 2.50357 8.92857C0.475 12.5714 1.97321 17.8929 3.91071 20.8286C4.88929 22.2571 6.03571 23.8571 7.54821 23.8C9.01786 23.7429 9.58929 22.8714 11.375 22.8714C13.1321 22.8714 13.6714 23.8 15.2179 23.7714C16.8089 23.7429 17.8214 22.3143 18.7714 20.8714C19.8929 19.2143 20.3554 17.5857 20.3786 17.5C20.3321 17.4857 17.1286 16.2857 17.0938 12.6436Z" fill="black"/>
  <path d="M14.4464 4.15714C15.2571 3.17857 15.8196 1.82143 15.6714 0.428571C14.5071 0.471429 13.0839 1.20714 12.2446 2.15714C11.4946 3.00714 10.8196 4.40714 10.9911 5.75714C12.2911 5.85 13.6071 5.10714 14.4464 4.15714Z" fill="black"/>
</svg> 