<svg width="24" height="24" viewBox="0 0 24 24" fill="none" xmlns="http://www.w3.org/2000/svg">
  <path d="M23.766 12.2764C23.766 11.4607 23.6999 10.6406 23.5588 9.83807H12.24V14.4591H18.7217C18.4528 15.9494 17.5885 17.2678 16.323 18.1056V21.1039H20.19C22.4608 19.0139 23.766 15.9274 23.766 12.2764Z" fill="#4285F4"/>
  <path d="M12.24 24.0008C15.4764 24.0008 18.2058 22.9382 20.1944 21.1039L16.3274 18.1055C15.2516 18.8375 13.8626 19.252 12.24 19.252C9.0526 19.252 6.3531 17.1399 5.3959 14.3003H1.3962V17.3912C3.4172 21.4434 7.5882 24.0008 12.24 24.0008Z" fill="#34A853"/>
  <path d="M5.39591 14.3003C5.1806 13.5591 5.05755 12.7732 5.05755 11.9666C5.05755 11.1599 5.1806 10.374 5.39591 9.63277V6.54184H1.39622C0.507814 8.17223 0 10.0133 0 11.9666C0 13.9198 0.507814 15.7609 1.39622 17.3912L5.39591 14.3003Z" fill="#FBBC04"/>
  <path d="M12.24 4.68127C14.0217 4.68127 15.6075 5.32688 16.8571 6.51762L20.2695 3.10517C18.1984 1.1812 15.4674 0 12.24 0C7.5882 0 3.4172 2.55737 1.3962 6.54184L5.3959 9.63277C6.3531 6.79321 9.0526 4.68127 12.24 4.68127Z" fill="#EA4335"/>
</svg> 